<?xml version="1.0" encoding="UTF-8"?>
<!-- Generator: Adobe Illustrator 27.5.0, SVG Export Plug-In . SVG Version: 6.00 Build 0)  -->
<svg xmlns="http://www.w3.org/2000/svg" xmlns:xlink="http://www.w3.org/1999/xlink" version="1.1" id="Layer_1" x="0px" y="0px" viewBox="0 0 1615.01 940.8" style="enable-background:new 0 0 1615.01 940.8;" xml:space="preserve">
<style type="text/css">
	.st0{fill:#FFFFFF;}
	.st1{fill:#301B44;}
	.st2{fill:#4F4D50;}
	.st3{fill:#E21D39;}
</style>
<g>
	<g>
		<path class="st0" d="M233.57,723.22c24.02-24.02,48.29-48.31,72.33-72.35c24.21,24.23,48.55,48.58,72.58,72.62    c-23.93,23.93-48.25,48.26-72.32,72.34C282.24,771.91,257.9,747.57,233.57,723.22z"></path>
		<path class="st0" d="M378.64,217.51c-23.98,23.99-48.31,48.33-72.41,72.43c-24.12-24.13-48.46-48.47-72.52-72.55    c23.99-23.99,48.32-48.33,72.41-72.43C330.23,169.09,354.57,193.43,378.64,217.51z"></path>
		<path class="st0" d="M149.26,470.56c24.12-24.13,48.46-48.48,72.61-72.65c10.02,10.03,20.27,20.28,30.77,30.78    c-13.71,13.7-27.63,27.61-41.84,41.81c14.09,14.08,27.99,27.98,41.55,41.53c-10.45,10.45-20.74,20.75-30.82,30.83    C197.63,518.95,173.29,494.6,149.26,470.56z"></path>
		<path class="st0" d="M306.48,313.61c24.05,24.06,48.33,48.36,72.37,72.4c-10.1,10.11-20.36,20.37-30.95,30.96    c-13.57-13.56-27.47-27.45-41.67-41.64c-3.08,2.74-5.75,5.62-8.54,8.37c-2.82,2.79-5.61,5.6-8.42,8.41    c-2.73,2.73-5.46,5.45-8.18,8.18c-2.81,2.8-5.61,5.61-8.42,8.41c-2.79,2.79-5.59,5.58-8.07,8.06    c-10.43-10.44-20.68-20.69-30.61-30.62C257.81,362.29,282.14,337.95,306.48,313.61z"></path>
		<path class="st0" d="M306.15,565.79c14.22-14.21,28.12-28.1,41.83-41.8c10.49,10.49,20.73,20.74,30.73,30.74    c-24.07,24.08-48.41,48.42-72.47,72.5c-24.03-24.04-48.35-48.37-72.43-72.45c9.83-9.83,20.08-20.08,30.66-30.66    C277.99,537.65,291.89,551.55,306.15,565.79z"></path>
		<path class="st0" d="M401.48,470.51c-14.17-14.17-28.08-28.07-41.75-41.73c10.51-10.51,20.76-20.77,31.48-31.5    c24.15,24.11,48.51,48.43,72.67,72.56c-24.8,24.81-49.07,49.09-73.03,73.06c-10.08-10.08-20.37-20.37-30.9-30.9    C373.43,498.55,387.27,484.72,401.48,470.51z"></path>
		<path class="st0" d="M145.2,281.97c0-42.99,0-85.98,0-128.88c0.22-0.15,0.31-0.25,0.41-0.27c0.1-0.02,0.24-0.01,0.31,0.04    c0.51,0.41,1.04,0.8,1.5,1.26c21.02,21.01,42.02,42.03,63.7,63.7c-21.83,21.62-43.52,43.11-65.21,64.6    C145.66,282.27,145.43,282.12,145.2,281.97z"></path>
		<path class="st0" d="M145.39,321.98c21.38,21.39,42.97,42.98,64.28,64.3c-21.11,21.12-42.7,42.72-64.17,64.2    C144.87,448.51,144.75,324.78,145.39,321.98z"></path>
		<path class="st0" d="M145.04,489.97c21.91,21.92,43.45,43.46,65.08,65.1c-0.97,1.71-59.9,60.96-64.39,64.56    c-0.1-0.03-0.21-0.04-0.3-0.08c-0.09-0.05-0.22-0.13-0.23-0.2c-0.07-1.09-0.16-2.19-0.16-3.28    C145.04,574.14,145.04,532.22,145.04,489.97z"></path>
		<path class="st0" d="M402.03,217.62c21.68-21.69,43.23-43.24,64.7-64.71c0.63,1.97,0.83,125.46-0.53,129.92    C444.79,261.06,423.37,239.3,402.03,217.62z"></path>
		<path class="st0" d="M401.93,554.91c21.69-21.69,43.24-43.26,64.84-64.86c-0.08-0.04,0.03-0.01,0.11,0.06    c0.08,0.06,0.19,0.16,0.19,0.25c0.06,42.38,0.11,84.75,0.15,127.13c0,0.64-0.1,1.28-0.16,1.97    C464.83,618.3,406.05,560,401.93,554.91z"></path>
		<path class="st0" d="M467.03,450.99c-21.79-21.79-43.33-43.33-64.58-64.58c21.44-21.45,43.02-43.05,64.75-64.78    c-0.48-0.26-0.37-0.22-0.29-0.15c0.08,0.07,0.17,0.17,0.17,0.26c0.06,42.47,0.1,84.95,0.15,127.42    C467.23,449.69,467.11,450.22,467.03,450.99z"></path>
		<path class="st0" d="M221.61,374.3c-21.22-21.23-42.75-42.77-64.37-64.39c-0.08,0.17-0.05,0.06,0.02-0.02    c0.06-0.08,0.16-0.18,0.24-0.18c41.51-0.06,83.02-0.12,124.54-0.17c1.32,0,2.64,0.05,3.96,0.11c0.16,0.01,0.31,0.24,0.15,0.11    C264.65,331.25,243.13,352.78,221.61,374.3z"></path>
		<path class="st0" d="M390.81,374.69c-21.57-21.58-43.12-43.13-64.78-64.81c-0.1,0.27-0.07,0.16-0.02,0.06    c0.05-0.08,0.14-0.21,0.21-0.21c42.62-0.07,85.23-0.13,127.85-0.17c0.4,0,0.8,0.16,1.25,0.26    C453.97,312.09,393.95,372.34,390.81,374.69z"></path>
		<path class="st0" d="M306.02,481.6c10.53,10.54,20.71,20.72,30.55,30.57c-10.18,10.19-20.48,20.48-30.52,30.53    c-9.74-9.74-19.98-19.99-30.57-30.58C285.35,502.25,295.65,491.96,306.02,481.6z"></path>
		<path class="st0" d="M233.68,470.27c9.9-9.91,20.15-20.16,30.14-30.15c10.08,10.09,20.4,20.4,30.5,30.5    c-9.93,9.92-20.18,20.16-30.16,30.14C254.1,490.7,243.79,480.39,233.68,470.27z"></path>
		<path class="st0" d="M275.31,428.41c10.36-10.35,20.54-20.53,30.78-30.76c1.92,1.05,26.71,25.45,30.68,30.22    c-10.26,10.26-20.49,20.5-30.87,30.88C304.36,457.94,279.63,433.63,275.31,428.41z"></path>
		<path class="st0" d="M378.88,470.68c-10.02,10.04-20.2,20.24-30.41,30.47c-2.02-1.17-28.8-27.75-30.69-30.43    c10.29-10.3,20.54-20.55,30.57-30.59C358.37,450.15,368.62,460.41,378.88,470.68z"></path>
	</g>
	<g>
		<path class="st0" d="M1046.56,505.78c1.43,0.46,2.43,0.68,3.35,1.09c3.54,1.56,7.33,2.74,10.52,4.84    c10.62,7.02,11.17,23.39,1.26,31.39c-3.53,2.84-7.54,4.75-11.87,6.04c-6.57,1.95-13.31,3.25-20.13,3.34    c-21.3,0.29-42.6,0.35-63.9,0.44c-3.4,0.01-3.73-0.47-3.73-4.38c-0.01-22.47-0.01-44.94-0.01-67.42c0-5.18-0.03-10.35,0.01-15.53    c0.03-3.4,0.48-3.87,3.91-3.87c17.07-0.02,34.13-0.12,51.2,0.06c9.06,0.1,18.09,0.87,26.87,3.43c4.22,1.23,8.06,3.14,11.66,5.7    c9.76,6.95,10.95,26.19-3.53,32.45C1050.46,504.1,1048.74,504.84,1046.56,505.78z M988.31,535.97c0.8,0.12,1.37,0.3,1.93,0.29    c11.76-0.17,23.52-0.27,35.27-0.61c3.99-0.11,7.93-0.9,11.59-2.71c3.37-1.66,4.75-4.43,4.63-8.03c-0.12-3.49-1.9-5.93-5.03-7.49    c-4.22-2.09-8.77-2.72-13.35-2.84c-10.7-0.28-21.4-0.34-32.1-0.46c-0.92-0.01-1.83,0.16-2.94,0.27    C988.31,521.57,988.31,528.58,988.31,535.97z M988.14,497.71c0.83,0.13,1.29,0.27,1.74,0.26c10.93-0.13,21.86-0.13,32.78-0.5    c3.22-0.11,6.47-1.07,9.58-2.04c3.1-0.97,4.64-3.38,4.68-6.72c0.05-3.4-1.17-6.14-4.43-7.29c-2.95-1.04-6.09-2.01-9.18-2.13    c-10.92-0.43-21.85-0.49-32.77-0.67c-0.77-0.01-1.55,0.23-2.41,0.37C988.14,485.27,988.14,491.36,988.14,497.71z"></path>
		<path class="st0" d="M1021.94,781.48c-0.54,0.24-0.93,0.31-1.15,0.53c-7.17,7.26-16.21,10.89-25.99,12.45    c-16.15,2.57-32.15,1.69-47.65-4.01c-7.17-2.63-13.53-6.58-18.69-12.3c-7.61-8.44-10.32-18.58-9.93-29.67    c0.63-17.85,8.91-30.9,25.11-38.57c4.21-2,8.77-3.43,13.32-4.54c11.75-2.85,23.7-3.43,35.76-2.59c7.66,0.54,15.21,1.58,22.53,3.93    c11.96,3.83,20.86,11.1,25.6,22.98c0.26,0.66,0.52,1.31,0.73,1.98c1.09,3.41,0.62,4.25-2.88,4.64c-5.96,0.67-11.93,1.26-17.9,1.84    c-2.88,0.28-3.24,0.11-4.26-2.52c-2.3-5.93-6.57-9.66-12.6-11.37c-12.94-3.66-25.99-3.83-39.09-0.91    c-1.37,0.31-2.71,0.77-4.04,1.25c-11.68,4.2-17.6,14.16-16.15,26.98c1.02,9.05,5.87,15.41,13.81,19.6    c5.94,3.13,12.37,4.42,18.97,4.99c10.31,0.89,20.45,0.29,30.16-3.78c3.31-1.39,6.26-3.27,8.59-6.02c0.79-0.94,1.41-2.03,2.44-3.54    c-1.78-0.11-2.91-0.23-4.04-0.24c-5.41-0.02-10.83,0-16.24-0.01c-5.78-0.01-5.79-0.01-5.79-5.96c0-2.24-0.07-4.47,0.03-6.71    c0.1-2.26,0.77-2.93,3.02-3.01c2.7-0.09,5.41-0.03,8.12-0.03c11.89,0,23.78,0,35.66,0c0.94,0,1.89-0.02,2.82,0.04    c1.51,0.1,2.37,0.9,2.43,2.46c0.02,0.59,0.03,1.18,0.03,1.76c0,12.82,0,25.65,0,38.47c0,0.59-0.01,1.18-0.02,1.76    c-0.04,1.72-0.94,2.61-2.64,2.62c-4.59,0.02-9.18-0.01-13.77,0.01c-1.74,0.01-2.45-1.09-2.93-2.54    C1024.2,788.19,1023.08,784.87,1021.94,781.48z"></path>
		<path class="st0" d="M691.15,521.56c-7.25,0-13.83,0-20.41,0c-0.94,0-1.88,0-2.82-0.03c-1.5-0.06-2.54-0.77-2.57-2.32    c-0.08-3.64-0.07-7.29-0.02-10.93c0.02-1.58,1.01-2.28,2.54-2.31c0.82-0.01,1.65-0.04,2.47-0.04c14,0,28.01,0,42.01,0    c0.82,0,1.65,0.02,2.47,0.03c1.57,0.02,2.37,0.87,2.49,2.38c0.07,0.82,0.07,1.64,0.07,2.47c0,12.35,0,24.7,0,37.05    c0,0.47,0.01,0.94-0.01,1.41c-0.14,3.13-0.58,3.6-3.82,3.65c-3.76,0.06-7.53,0.05-11.3,0c-3.36-0.04-3.44-0.13-4.52-3.25    c-1.07-3.07-2.1-6.15-3.14-9.2c-0.56,0.15-0.84,0.14-0.97,0.27c-7.81,7.91-17.71,11.49-28.35,13    c-14.99,2.11-29.81,1.06-44.21-3.93c-7.56-2.62-14.29-6.61-19.75-12.54c-5.79-6.28-8.96-13.78-9.81-22.19    c-0.59-5.86-0.46-11.75,0.92-17.54c3.57-14.98,13.18-24.57,27.13-30.2c8.03-3.24,16.48-4.88,25.06-5.49    c12.23-0.86,24.46-0.71,36.52,1.95c9.09,2.01,17.55,5.33,24.23,12.16c4.19,4.28,7.13,9.32,8.95,15.01    c0.99,3.08,0.37,4.03-2.94,4.36c-5.97,0.59-11.94,1.14-17.92,1.63c-3.16,0.26-3.25,0.2-4.44-2.75    c-2.27-5.64-6.31-9.39-12.15-10.83c-4.88-1.21-9.87-2.25-14.87-2.7c-7.86-0.71-15.76-0.44-23.51,1.34    c-5.22,1.2-10.09,3.17-14.07,6.92c-4.4,4.15-6.95,9.25-7.07,15.27c-0.07,3.72,0.1,7.58,1.02,11.16    c1.7,6.61,6.23,11.18,12.14,14.44c5.13,2.83,10.68,4.31,16.44,4.96c9.77,1.1,19.5,1.12,29.01-1.85c3.72-1.16,7.32-2.61,10.36-5.14    C688.21,526.21,689.88,524.45,691.15,521.56z"></path>
		<path class="st0" d="M886.09,461.7c11.6-0.3,23.03,0.86,33.99,4.93c11.36,4.22,20.53,11.14,25.47,22.48    c8.03,18.45,4.38,45.63-20.72,57.96c-7.48,3.68-15.42,5.75-23.63,6.73c-13.53,1.6-27.01,1.32-40.33-1.86    c-7.74-1.85-14.97-4.85-21.37-9.68c-9.87-7.46-15.16-17.47-16.38-29.66c-0.61-6.12-0.19-12.22,1.49-18.19    c3.51-12.48,11.41-21.13,23.17-26.35c9.05-4.01,18.64-5.65,28.42-6.33C879.49,461.51,882.8,461.7,886.09,461.7z M885.57,480.38    c-6.46-0.09-13.59,0.47-20.37,3.16c-14.97,5.93-19.01,19.01-15.45,32.09c2.47,9.05,9.04,14.27,17.62,17.26    c5.28,1.84,10.78,2.39,16.31,2.49c8.14,0.15,16.23-0.32,23.8-3.78c6.81-3.12,11.86-8,14.43-15.13c5.04-14-1.8-28.38-15.79-33.34    C899.71,480.85,893.05,480.37,885.57,480.38z"></path>
		<path class="st0" d="M1129.17,674.95c-12.89,0.13-24.95-1.45-36.53-5.91c-5.32-2.05-10.17-4.87-14.15-9.03    c-3.96-4.14-6.25-9.07-6.84-14.76c-0.37-3.56,0.24-4.23,3.73-4.25c6.35-0.04,12.71,0.05,19.06-0.04c2.09-0.03,3.31,0.66,3.84,2.74    c1.07,4.18,4,6.8,7.67,8.72c4.34,2.27,9.01,3.47,13.84,3.86c7.16,0.58,14.33,0.81,21.46-0.48c3.41-0.61,6.57-1.84,9.28-4.04    c3.28-2.66,3.25-6.07-0.33-8.38c-2.14-1.38-4.56-2.56-7.02-3.16c-6.61-1.62-13.31-2.86-19.97-4.29    c-8.61-1.85-17.26-3.55-25.79-5.68c-5.14-1.29-9.96-3.56-14.16-6.93c-7.19-5.78-9.69-14.15-6.67-22.36    c1.7-4.63,4.95-7.94,9.06-10.46c5.28-3.24,11.1-5.1,17.13-6.27c17.77-3.43,35.51-3.64,53.14,0.99c5.52,1.45,10.54,3.95,15,7.56    c6.08,4.91,8.79,11.47,9.22,19.08c0.18,3.16-0.37,3.68-3.63,3.7c-6.12,0.05-12.24,0.04-18.35,0c-3.01-0.02-3.55-0.4-3.73-3.39    c-0.22-3.67-2.12-6.12-5.04-8c-3.03-1.95-6.39-3.22-9.93-3.33c-9.52-0.3-19.06-0.67-28.48,1.29c-1.7,0.36-3.43,0.93-4.95,1.76    c-3.44,1.88-3.9,5.69-0.79,8.11c1.99,1.55,4.41,2.84,6.83,3.49c5.55,1.47,11.22,2.53,16.86,3.65c9.56,1.9,19.2,3.44,28.67,5.69    c4.62,1.1,9.15,3.08,13.35,5.34c5.48,2.94,9.34,7.47,10.32,13.94c1.06,6.96-0.6,13.06-5.69,18.07c-3.24,3.19-7.16,5.32-11.34,6.99    c-10.53,4.2-21.54,5.68-32.79,5.81C1130.49,674.96,1129.55,674.95,1129.17,674.95z"></path>
		<path class="st0" d="M1011.91,674.95c-14.36,0.09-27-1.53-39.05-6.54c-4.38-1.82-8.38-4.25-11.81-7.56    c-4.5-4.34-7.07-9.6-7.72-15.82c-0.33-3.2,0.32-4.02,3.58-4.04c6.36-0.04,12.71-0.04,19.07,0c2.95,0.02,3.09,0.06,4,2.9    c1.27,3.97,3.99,6.57,7.54,8.45c4.22,2.23,8.76,3.45,13.48,3.87c7.4,0.67,14.81,0.89,22.16-0.46c3.52-0.64,6.79-1.96,9.5-4.37    c2.7-2.41,2.83-5.34-0.1-7.45c-2.24-1.62-4.87-2.99-7.53-3.67c-6.6-1.68-13.31-2.89-19.97-4.32c-8.73-1.88-17.49-3.6-26.15-5.77    c-4.9-1.23-9.5-3.43-13.57-6.57c-11.38-8.79-11.05-24.06,0.75-32.28c5.72-3.98,12.25-5.99,18.97-7.25    c16.71-3.15,33.43-3.38,50.09,0.47c6.26,1.45,12.07,3.91,17.13,7.96c6.3,5.04,9.3,11.67,9.46,19.64c0.06,2.86-0.38,3.36-3.18,3.39    c-6.35,0.06-12.71,0.06-19.07,0c-2.64-0.02-3.05-0.34-3.25-3.05c-0.32-4.36-2.64-7.31-6.42-8.98c-2.76-1.22-5.75-2.49-8.69-2.62    c-9.39-0.42-18.83-0.73-28.14,1.18c-1.6,0.33-3.22,0.79-4.68,1.49c-4.15,1.99-4.58,6.27-0.79,8.95c1.89,1.33,4.1,2.43,6.32,3    c5.46,1.39,10.97,2.62,16.53,3.55c11.36,1.91,22.85,3.25,33.74,7.21c3.82,1.39,7.58,3.26,10.96,5.52    c11.12,7.41,10.3,23.84,1.32,31.22c-5.6,4.6-12.11,7.13-18.99,8.93C1028.58,674.24,1019.59,675.07,1011.91,674.95z"></path>
		<path class="st0" d="M808.72,635.3c-18.3,0-36.05,0-54.2,0c-0.06,1.31-0.17,2.55-0.17,3.8c-0.01,9.53-0.01,19.06-0.01,28.59    c0,0.82,0.04,1.65-0.02,2.47c-0.15,2.47-0.74,3.12-3.2,3.17c-3.76,0.07-7.53,0.02-11.3,0.02c-2.94,0-5.89,0.06-8.83-0.02    c-2.45-0.07-3.06-0.72-3.23-3.18c-0.05-0.82-0.02-1.65-0.02-2.47c0-26.59,0-53.18,0-79.76c0-0.59-0.01-1.18,0-1.76    c0.08-3.45,0.48-3.93,3.85-3.95c6.35-0.05,12.71-0.05,19.07,0c3.22,0.02,3.64,0.45,3.65,3.73c0.04,9.53,0.01,19.06,0.02,28.59    c0,1.28,0,2.55,0,3.74c2.9,0.77,49.89,0.92,54.18,0.19c0.06-1.15,0.19-2.39,0.19-3.63c0.02-9.06,0.01-18.12,0.01-27.18    c0-0.94,0.02-1.88,0.03-2.82c0.01-1.74,0.91-2.58,2.62-2.6c0.82-0.01,1.65-0.03,2.47-0.03c5.18,0,10.36,0,15.53,0    c5.53,0,5.53,0.01,5.53,5.38c0,25.53,0,51.06,0,76.59c0,1.65,0.01,3.29,0,4.94c-0.04,3.94-0.32,4.24-4.21,4.26    c-5.77,0.02-11.53,0.02-17.3,0c-4.44-0.01-4.66-0.21-4.67-4.53c-0.02-9.76-0.01-19.53-0.01-29.29    C808.72,638.25,808.72,636.97,808.72,635.3z"></path>
		<path class="st0" d="M701.21,618.27c-3.29,0-6.59-0.05-9.88,0.02c-1.92,0.04-3.07-0.65-3.54-2.62    c-1.88-7.87-7.64-11.82-14.92-13.3c-12.1-2.46-24.32-2.6-36.39,0.54c-4.82,1.25-9.27,3.39-12.94,6.9    c-3.53,3.38-5.51,7.51-6.3,12.32c-0.68,4.13-0.5,8.24,0.36,12.27c1.67,7.87,6.34,13.49,13.46,17.14    c4.56,2.34,9.47,3.59,14.52,4.09c8.11,0.79,16.21,0.7,24.21-1.2c3.92-0.93,7.62-2.39,11.01-4.58c3.47-2.24,6.12-5.19,7.27-9.21    c0.59-2.06,1.73-2.86,3.78-2.85c6.71,0.04,13.41-0.05,20.12,0.03c3.48,0.04,4.06,0.99,2.93,4.47    c-2.86,8.83-8.36,15.71-15.92,20.97c-8.58,5.97-18.27,9.17-28.51,10.55c-14.59,1.97-29.1,1.54-43.36-2.59    c-9.4-2.72-17.95-6.96-24.94-14c-9.09-9.17-12.39-20.41-11.17-32.93c1.91-19.55,13.37-31.53,31.43-37.66    c13.33-4.52,27.13-5.51,41.11-4.6c7.53,0.49,14.97,1.56,22.17,3.91c8.8,2.87,16.49,7.41,22.25,14.85    c3.14,4.06,5.32,8.58,6.56,13.55c0.74,2.98,0.06,3.86-3.06,3.92C708.03,618.32,704.62,618.27,701.21,618.27z"></path>
		<path class="st0" d="M1169.68,732.65c0,7.88,0.13,15.76-0.03,23.64c-0.33,16.96-8.93,28.98-24.88,34.84    c-8.25,3.03-16.83,4.26-25.59,4.49c-11.22,0.3-22.35-0.2-33.12-3.8c-7.37-2.46-13.97-6.19-19.06-12.22    c-5.21-6.16-7.85-13.38-8.13-21.35c-0.28-7.75-0.12-15.52-0.14-23.29c-0.01-9.29-0.02-18.58,0.01-27.88    c0.01-3.91,0.29-4.18,4.25-4.2c6.47-0.03,12.94-0.03,19.41,0c3.71,0.02,4.05,0.34,4.05,4.03c0.02,15.41,0,30.82,0.03,46.23    c0,1.88,0.15,3.76,0.33,5.63c0.79,8.22,5.53,13.25,13.09,15.8c7.28,2.46,14.81,2.46,22.34,1.57c2.78-0.33,5.6-0.92,8.22-1.88    c6.23-2.29,10.07-6.78,11.08-13.42c0.37-2.43,0.56-4.91,0.57-7.37c0.05-15.06,0.03-30.11,0.03-45.17c0-0.94,0.02-1.88,0.02-2.82    c0-1.77,0.95-2.56,2.64-2.58c1.88-0.02,3.77-0.03,5.65-0.03c4.94,0,9.88-0.02,14.83,0.01c4.19,0.02,4.44,0.26,4.44,4.35    c0.02,8.47,0.01,16.94,0.01,25.41C1169.71,732.65,1169.7,732.65,1169.68,732.65z"></path>
		<path class="st0" d="M724.37,720.51c0,6.43,0,12.37,0,18.62c1.44,0.06,2.7,0.17,3.95,0.17c13.53,0.01,27.07,0.01,40.6,0.01    c0.94,0,1.89-0.05,2.82,0.04c2.25,0.22,2.93,0.85,2.98,3.08c0.08,3.64,0.09,7.3-0.01,10.94c-0.06,2.23-0.75,2.81-3.05,3.02    c-0.93,0.08-1.88,0.03-2.82,0.04c-13.42,0-26.83,0-40.25,0c-1.28,0-2.56,0-4.3,0c-0.23,7.03-0.17,13.76-0.03,20.85    c1.62,0,2.88,0,4.15,0c19.42,0,38.84,0,58.25,0c0.94,0,1.88,0.01,2.82,0.02c1.73,0.02,2.65,0.99,2.68,2.63    c0.06,3.88,0.06,7.76-0.02,11.64c-0.04,1.68-1.06,2.53-2.77,2.5c-0.71-0.01-1.41,0.01-2.12,0.01c-28.01,0-56.02,0-84.03,0    c-0.82,0-1.65,0.01-2.47-0.02c-1.72-0.06-2.54-1.05-2.64-2.69c-0.05-0.82-0.03-1.65-0.03-2.47c0-26.94,0-53.88,0-80.82    c0-5.05,0.11-5.17,5.12-5.17c27.19-0.01,54.37,0,81.56,0c0.82,0,1.65,0.02,2.47,0.03c1.71,0.01,2.65,0.85,2.66,2.58    c0.03,4.12,0.03,8.23,0.01,12.35c-0.01,1.72-0.98,2.56-2.65,2.62c-0.94,0.03-1.88,0.03-2.82,0.03c-18.48,0-36.95,0-55.43,0    C727.6,720.51,726.2,720.51,724.37,720.51z"></path>
		<path class="st0" d="M1212.12,720.51c0,6.38,0,12.32,0,18.62c1.34,0.06,2.59,0.17,3.83,0.17c13.29,0.01,26.59,0.01,39.88,0.01    c0.82,0,1.65-0.02,2.47,0.01c3.61,0.1,3.98,0.47,4.01,4.15c0.03,3.29,0.06,6.59-0.03,9.88c-0.07,2.35-0.6,2.83-2.96,3.04    c-0.93,0.08-1.88,0.03-2.82,0.03c-13.29,0-26.59,0-39.88,0c-1.39,0-2.78,0-4.44,0c0,6.95,0,13.6,0,20.74    c1.25,0.04,2.6,0.11,3.96,0.11c19.18,0.01,38.35,0,57.53,0.01c0.71,0,1.41-0.01,2.12,0c3.63,0.06,4.01,0.42,4.04,4.09    c0.03,3.17,0.06,6.35-0.02,9.52c-0.06,2.53-0.62,3.03-3.16,3.16c-0.7,0.04-1.41,0.01-2.12,0.01c-27.76,0-55.53,0-83.29,0    c-0.12,0-0.24,0-0.35,0c-5-0.01-5.04-0.05-5.04-5.22c0-23.05,0-46.1,0-69.15c0-4.12-0.02-8.23,0.01-12.35    c0.02-4.2,0.24-4.44,4.35-4.45c9.76-0.02,19.53-0.01,29.29-0.01c17.41,0,34.82,0,52.23,0c0.94,0,1.88-0.04,2.82,0.02    c2.42,0.15,3.02,0.6,3.07,2.89c0.1,4,0.03,8,0.02,11.99c-0.01,1.74-0.99,2.56-2.64,2.66c-1.06,0.06-2.12,0.04-3.17,0.04    c-18.35,0-36.7,0-55.06,0C1215.38,720.51,1213.97,720.51,1212.12,720.51z"></path>
		<path class="st0" d="M878.78,599.79c0,6.37,0,12.31,0,18.62c1.32,0.06,2.57,0.17,3.81,0.17c13.29,0.01,26.59,0.01,39.88,0.01    c0.82,0,1.65-0.02,2.47,0.01c3.61,0.1,3.99,0.47,4.03,4.14c0.03,3.29,0.06,6.59-0.03,9.88c-0.07,2.36-0.59,2.84-2.94,3.06    c-0.93,0.09-1.88,0.03-2.82,0.03c-13.29,0-26.59,0-39.88,0c-1.39,0-2.79,0-4.45,0c0,6.94,0,13.58,0,20.74    c1.23,0.04,2.58,0.11,3.94,0.11c19.06,0.01,38.12,0.01,57.17,0.01c0.71,0,1.41-0.01,2.12,0c4.11,0.04,4.39,0.31,4.42,4.43    c0.02,3.06,0.06,6.12-0.02,9.17c-0.06,2.54-0.62,3.04-3.15,3.18c-0.7,0.04-1.41,0.01-2.12,0.01c-27.76,0-55.53,0-83.29,0    c-0.47,0-0.94,0.01-1.41,0c-3.6-0.07-3.99-0.41-3.99-4.14c-0.02-21.17-0.01-42.33-0.01-63.5c0-6.23-0.01-12.47,0-18.7    c0.01-4.67,0.14-4.82,4.69-4.83c9.18-0.02,18.35-0.01,27.53-0.01c17.88,0,35.76,0,53.64,0c1.06,0,2.12-0.05,3.17,0.04    c2.12,0.18,2.68,0.67,2.74,2.86c0.1,4,0.03,8,0.02,11.99c0,1.73-0.97,2.58-2.62,2.68c-1.06,0.07-2.12,0.04-3.17,0.04    c-18.47,0-36.94,0-55.41,0C881.72,599.79,880.34,599.79,878.78,599.79z"></path>
		<path class="st0" d="M1156.08,528.53c-1.18-0.06-1.99-0.13-2.81-0.13c-13.06-0.01-26.11,0.05-39.17-0.06    c-2.35-0.02-3.59,0.63-4.48,2.88c-2.42,6.11-5.23,12.08-7.62,18.2c-1.01,2.57-2.38,3.66-5.19,3.58    c-6.23-0.17-12.47-0.03-18.7-0.06c-4.74-0.02-5.32-0.91-3.4-5.17c5.6-12.43,11.2-24.85,16.81-37.27    c6.76-14.99,13.59-29.96,20.24-45c1.2-2.72,2.66-3.93,5.78-3.87c10.46,0.19,20.94,0.15,31.4,0.02c2.62-0.03,4.06,0.85,5.15,3.22    c12.83,27.85,25.75,55.66,38.64,83.49c0.3,0.64,0.61,1.29,0.77,1.96c0.27,1.21-0.2,2.13-1.44,2.39c-0.91,0.19-1.87,0.23-2.8,0.23    c-6.35,0.02-12.71-0.11-19.05,0.07c-2.82,0.08-4.22-1-5.22-3.56c-2.27-5.8-4.81-11.48-7.25-17.21    C1157.23,531.04,1156.68,529.87,1156.08,528.53z M1148.5,511.84c-1.04-4.36-13.63-33.25-15.26-35.21    c-3.04,5.28-14.34,32.64-14.5,35.21C1128.57,511.84,1138.4,511.84,1148.5,511.84z"></path>
		<path class="st0" d="M879.94,769.51c-15.14,0-29.95,0-45.05,0c-0.47,0.99-1,2.01-1.45,3.07c-2.63,6.16-5.33,12.3-7.83,18.51    c-0.87,2.17-2.1,3.07-4.48,3.02c-6.59-0.13-13.18-0.04-19.77-0.05c-0.47,0-0.95,0.03-1.41-0.03c-2.12-0.27-2.81-1.36-2.11-3.44    c0.33-1,0.83-1.94,1.27-2.91c12.18-27.01,24.41-53.99,36.49-81.04c1.23-2.76,2.7-3.87,5.78-3.82c10.47,0.18,20.95,0.16,31.42,0.01    c2.78-0.04,4.17,0.94,5.33,3.45c12.67,27.56,25.45,55.07,38.2,82.59c2,4.33,1.46,5.17-3.24,5.19c-6.47,0.02-12.95-0.07-19.42,0.05    c-2.34,0.04-3.62-0.76-4.52-2.97C886.22,783.96,883.09,776.86,879.94,769.51z M872.31,753.06c-0.73-3.99-13.57-33.46-15.3-35.31    c-3.6,6.69-14.28,32.61-14.51,35.31C852.35,753.06,862.19,753.06,872.31,753.06z"></path>
		<path class="st0" d="M1230.23,535.43c1.87,0,3.26,0,4.65,0c16.83,0,33.66,0,50.49,0c5.41,0,5.59,0.18,5.6,5.49    c0,2.82,0.06,5.65-0.02,8.47c-0.08,2.91-0.63,3.39-3.6,3.54c-0.7,0.03-1.41,0.01-2.12,0.01c-25.19,0-50.37,0-75.56,0    c-5.84,0-5.85-0.02-5.85-5.92c0-26.47,0-52.94,0-79.41c0-0.24,0-0.47,0-0.71c0.02-4.92,0.29-5.2,5.17-5.2    c5.53-0.01,11.06-0.01,16.59,0c4.18,0.01,4.64,0.45,4.64,4.67c0.01,21.41,0.01,42.82,0.01,64.24    C1230.23,532,1230.23,533.4,1230.23,535.43z"></path>
		<path class="st0" d="M759.87,535.43c2.01,0,3.4,0,4.8,0c16.48,0,32.95,0,49.43,0c1.06,0,2.12-0.04,3.18,0.03    c2.66,0.18,3.24,0.74,3.3,3.5c0.08,3.53,0.09,7.06,0,10.59c-0.07,2.74-0.63,3.21-3.39,3.38c-0.7,0.04-1.41,0.02-2.12,0.02    c-25.3,0-50.61,0-75.91,0c-5.61,0-5.69-0.09-5.69-5.72c0-26.59,0-53.18,0-79.77c0-0.71-0.02-1.41,0.01-2.12    c0.13-2.88,0.75-3.6,3.55-3.62c6.47-0.06,12.95-0.06,19.42,0c2.61,0.02,3.26,0.75,3.42,3.39c0.06,0.94,0.02,1.88,0.02,2.82    c0,20.94,0,41.88,0,62.82C759.87,532.15,759.87,533.55,759.87,535.43z"></path>
		<path class="st0" d="M626.62,776.53c1.73,0,2.99,0,4.25,0c17.05,0,34.1,0,51.15,0c0.94,0,1.88-0.01,2.82,0.03    c1.53,0.07,2.44,0.86,2.46,2.41c0.04,4.23,0.04,8.46-0.01,12.69c-0.02,1.56-0.99,2.31-2.5,2.37c-0.82,0.03-1.65,0.03-2.47,0.03    c-25.63,0-51.27,0-76.9,0c-0.59,0-1.18,0.02-1.76-0.01c-2.55-0.14-3.06-0.63-3.2-3.14c-0.04-0.7-0.01-1.41-0.01-2.12    c0-26.92,0-53.84,0-80.75c0-5.1,0.03-5.14,5.06-5.15c5.64-0.01,11.29-0.03,16.93,0.01c3.91,0.02,4.17,0.29,4.18,4.25    c0.01,21.51,0.01,43.02,0.01,64.53C626.62,773.09,626.62,774.49,626.62,776.53z"></path>
	</g>
	<g>
		<path class="st0" d="M839.48,146.42c4.75,1.03,9.49,2.05,14.24,3.1c1.14,0.25,2.27,0.56,3.7,0.93    c-0.32,5.35-2.35,10.08-3.95,15.28c-2.19-0.2-4.24-0.16-6.16-0.61c-8.32-1.95-16.76-2.1-25.19-1.6    c-4.15,0.25-8.38,1.14-12.33,2.45c-5.62,1.87-9.32,6.1-10.89,11.79c-1.68,6.1-1.79,12.33-0.33,18.54    c1.44,6.15,5.42,10.23,11.19,11.99c4.61,1.41,9.6,2.39,14.39,2.26c10.59-0.28,21.15-1.38,32.44-2.2c1.11,4.03,2.39,8.68,3.8,13.84    c-3.57,1-6.88,2.22-10.29,2.83c-11.84,2.14-23.8,3.1-35.81,2.07c-7.57-0.65-14.99-2.06-21.91-5.63    c-6.29-3.24-11.01-7.85-13.67-14.32c-5.68-13.86-5.32-27.73,1.26-41.16c4.35-8.87,12.18-13.76,21.45-16.42    c4.18-1.2,8.45-2.1,12.67-3.14C822.57,146.42,831.02,146.42,839.48,146.42z"></path>
		<path class="st0" d="M609.2,372.35c-6.38,0-11.89,0-17.71,0c0-25.89,0-51.48,0-77.38c1.44-0.14,2.73-0.36,4.03-0.36    c40.39-0.02,80.79,0.08,121.18-0.07c10.3-0.04,20.16,6.26,23.3,15.5c0.91,2.67,1.49,5.59,1.51,8.4    c0.14,16.56,0.08,33.11,0.05,49.67c0,1.32-0.25,2.64-0.41,4.24c-6.07,0-11.9,0-18.28,0c-0.15-2.12-0.4-4.07-0.41-6.02    c-0.04-13.18-0.02-26.36-0.02-39.54c0-1.86,0.03-3.72-0.12-5.57c-0.5-6.54-5.15-11.58-11.71-11.79    c-10.3-0.33-20.62-0.18-30.93-0.09c-3.01,0.03-3.84,1.01-4.17,3.97c-0.15,1.34-0.08,2.7-0.08,4.05c0,16.22,0.01,32.44-0.02,48.66    c0,1.98-0.18,3.96-0.29,6.28c-6.08,0-11.74,0-18.06,0c-0.11-1.94-0.31-3.88-0.31-5.83c-0.03-16.05-0.01-32.1-0.02-48.15    c0-1.35,0.05-2.71-0.04-4.05c-0.24-3.85-1.11-4.91-4.88-4.94c-12.51-0.1-25.01-0.11-37.52,0c-4.2,0.04-5.07,1.25-5.08,6.35    c-0.04,16.73-0.02,33.45-0.02,50.18C609.2,367.84,609.2,369.83,609.2,372.35z"></path>
		<path class="st0" d="M1242.42,295.41c-2.02,4.19-3.84,8.49-6.2,12.47c-0.59,0.99-2.93,1.3-4.48,1.32    c-9.46,0.12-18.93,0.03-28.39,0.09c-2.01,0.01-4.13,0.01-6.01,0.61c-5.71,1.82-9.25,5.88-9.43,11.88    c-0.32,10.46-0.2,20.95-0.09,31.42c0.04,3.46,1.52,4.67,5.1,4.99c1.01,0.09,2.03,0.05,3.04,0.05c16.73,0,33.47,0.01,50.2-0.01    c1.82,0,3.64-0.17,5.99-0.28c0.54-10.42,0.19-20.49,0.25-30.55c0.06-10.14,0.01-20.27,0.01-30.41c0-10.1,0-20.2,0-30.7    c6.17,0,11.82,0,18.08,0c0.17,1.58,0.49,3.18,0.49,4.78c0.03,32.27,0.03,64.54,0.01,96.81c0,1.32-0.23,2.64-0.4,4.47    c-1.95,0.11-3.74,0.31-5.54,0.31c-26.37,0.02-52.73,0.01-79.1,0.02c-3.23,0-6.39-0.1-9.29-1.88c-4.49-2.76-7.28-6.5-7.29-11.92    c-0.03-14.02-0.02-28.05,0-42.07c0.01-9.53,7.99-21.26,21.32-21.9c16.69-0.8,33.45-0.2,50.18-0.19    C1241.16,294.7,1241.45,294.96,1242.42,295.41z"></path>
		<path class="st0" d="M1451.07,358.08c0.12-2.04,0.28-3.52,0.29-5.01c0.02-9.46,0.05-18.92,0-28.39    c-0.05-10.03-5.28-15.31-15.31-15.34c-16.9-0.06-33.81-0.02-50.71-0.02c-1.81,0-3.61,0-6.38,0c2.53-5.38,4.65-9.87,6.79-14.42    c1.13-0.11,2.13-0.3,3.12-0.3c19.1-0.01,38.2-0.15,57.3,0.07c10.47,0.12,17.94,5.42,22.07,14.98c1.17,2.71,1.68,5.89,1.71,8.86    c0.16,16.73,0.09,33.45,0.06,50.18c0,1.14-0.3,2.28-0.48,3.57c-1.35,0.14-2.5,0.37-3.65,0.37c-28.23,0.02-56.46,0-84.68,0.03    c-3.14,0-6.03-0.61-8.63-2.4c-4.16-2.86-6.61-6.69-6.64-11.85c-0.03-6.08-0.1-12.17,0-18.25c0.14-8.44,5.52-13.86,14.03-13.96    c10.82-0.13,21.64-0.04,32.45-0.04c5.06,0,10.12,0,16.06,0c-1.28,2.94-2.42,5.29-3.33,7.72c-0.87,2.35-2.56,2.76-4.79,2.74    c-9.3-0.07-18.59-0.03-27.89-0.02c-8.48,0.01-8.48,0.01-8.49,8.4c0,2.7-0.06,5.41,0.02,8.11c0.13,3.95,1.17,4.97,5.17,5.24    c0.67,0.05,1.35,0.02,2.03,0.02c18.26,0,36.51,0.01,54.77-0.01C1447.45,358.37,1448.95,358.21,1451.07,358.08z"></path>
		<path class="st0" d="M844.64,358.1c0-4.24,0-7.77,0-11.3c0-7.43-0.33-14.89,0.08-22.3c0.51-9.18-6.13-15.42-15.44-15.26    c-16.9,0.28-33.81,0.08-50.71,0.08c-1.79,0-3.58,0-6.12,0c1.96-4.39,3.56-7.87,5.06-11.39c1.05-2.46,2.65-3.46,5.46-3.41    c9.29,0.18,18.59,0.06,27.89,0.07c9.3,0,18.59-0.08,27.89,0.03c14.36,0.18,24.54,10.35,24.64,24.7    c0.11,16.22,0.04,32.44,0.01,48.66c0,1.32-0.21,2.63-0.34,4.22c-1.5,0.17-2.8,0.44-4.09,0.44c-28.06,0.02-56.12-0.01-84.18,0.03    c-6.55,0.01-11.43-2.65-14.21-8.63c-0.76-1.63-1.12-3.56-1.16-5.37c-0.14-6.42-0.17-12.84-0.03-19.26    c0.16-7.47,5.24-13.02,12.64-13.12c16.05-0.23,32.11-0.06,48.17-0.03c0.29,0,0.57,0.26,1.34,0.63c-1.19,2.7-2.32,5.46-3.6,8.14    c-0.92,1.93-2.82,1.56-4.47,1.56c-7.94,0.03-15.89,0.01-23.83,0.01c-2.03,0-4.06-0.02-6.09,0.01c-5.65,0.09-6.38,0.82-6.44,6.5    c-0.03,3.38-0.09,6.76,0.03,10.14c0.12,3.51,1.4,4.75,4.93,5.08c1.01,0.09,2.03,0.05,3.04,0.05c17.75,0,35.5,0.01,53.25-0.01    C840.2,358.37,842.02,358.22,844.64,358.1z"></path>
		<path class="st0" d="M874.07,147.81c6.91,0,13.6,0,20.89,0c0,10.99,0,21.72,0,32.25c4.18,1.32,37.81,1.56,43.87,0.37    c0-10.59,0-21.32,0-32.78c4.05-0.04,7.51-0.09,10.98-0.11c3.37-0.02,6.73,0,9.98,0c1.26,4.29,1.35,73.04,0.14,77.8    c-6.63,0-13.34,0-20.58,0c-0.83-8.62,0.14-17.2-0.57-25.57c-4.04-1.16-37.79-1.34-43.54-0.21c0,8.25,0,16.62,0,24.8    c-3.99,1.32-14.47,1.59-20.98,0.7C873.23,221.38,872.98,154.03,874.07,147.81z"></path>
		<path class="st0" d="M758.69,178.05c0,5.44,0,9.93,0,15.14c-8.35,0-16.41,0-24.47,0c-8.08,0-16.15,0-24.64,0    c0,5.57,0,10.49,0,16.09c18.3,0,36.29,0,54.67,0c0,5.62,0,10.56,0,15.85c-25.57,0-50.81,0-76.37,0c0-25.73,0-51.18,0-76.64    c3.36-1.17,66.94-1.54,73.89-0.36c0,4.9,0,9.87,0,15.32c-1.96,0.12-3.76,0.31-5.56,0.32c-13.52,0.03-27.04,0-40.57,0.03    c-1.98,0-3.96,0.2-6.15,0.32c0,4.79,0,9.08,0,13.94C725.99,178.05,742.13,178.05,758.69,178.05z"></path>
		<path class="st0" d="M1148.55,372.32c-6.16,0-11.83,0-17.94,0c-0.14-2.27-0.35-4.24-0.35-6.21c-0.03-13.85,0.04-27.7-0.08-41.54    c-0.02-2.65-0.18-5.54-1.23-7.89c-2.17-4.89-6.4-7.27-11.75-7.36c-6.25-0.1-12.5-0.05-18.75-0.05c-7.6-0.01-15.2,0-22.81,0    c-1.65,0-3.29,0-5.64,0c0,21.31,0,41.98,0,63.02c-6.34,0-11.98,0-17.99,0c0-25.76,0-51.33,0-77.2c1.04-0.14,2-0.39,2.96-0.39    c23.31-0.05,46.63-0.15,69.94-0.06c10.73,0.04,19.15,6.11,22.77,16.18c0.73,2.02,1.14,4.27,1.15,6.42    c0.09,17.39,0.06,34.79,0.05,52.18C1148.89,370.23,1148.71,371.05,1148.55,372.32z"></path>
		<path class="st0" d="M622.58,225.14c0-20.01,0-39.41,0-59.43c-5.27-0.69-10.29-0.27-15.27-0.34c-5.05-0.07-10.11-0.02-15.71-0.02    c-0.79-5.93-0.22-11.54-0.37-17.49c28.46,0,56.4,0,84.73,0c0,5.72,0,11.2,0,17.36c-10.34,0-20.55,0-31.5,0    c-0.14,10.54-0.05,20.44-0.07,30.34c-0.01,9.75,0,19.51,0,29.58C636.95,225.14,630.12,225.14,622.58,225.14z"></path>
		<path class="st0" d="M918.16,294.58c8.25,0,16.35,0,24.45,0c5.41,0,10.82-0.05,16.22,0.03c11.5,0.16,20.09,6.37,23.63,17.17    c0.62,1.89,0.93,3.96,0.94,5.95c0.07,17.23,0.05,34.46,0.03,51.69c0,0.82-0.16,1.63-0.29,2.84c-6.11,0-12.05,0-18.57,0    c0-2.12,0-3.93,0-5.75c0-14.19,0.03-28.38-0.01-42.57c-0.03-9.55-5.07-14.59-14.72-14.65c-10.98-0.07-21.97-0.01-32.95-0.04    c-1.62,0-3.23-0.19-5.59-0.34C913.76,303.75,915.91,299.27,918.16,294.58z"></path>
		<path class="st0" d="M1317.59,372.28c-6.17,0-11.97,0-18.05,0c-0.1-2.01-0.24-3.66-0.24-5.31c-0.02-15.71,0.4-31.44-0.13-47.13    c-0.45-13.32,10.23-25.55,25.09-25.3c14.36,0.24,28.73,0.04,43.1,0.05c1.15,0,2.3,0.14,4.18,0.27c-2.32,4.57-4.24,8.84-6.67,12.79    c-0.64,1.04-2.86,1.51-4.37,1.54c-9.12,0.14-18.25,0.05-27.38,0.1c-1.85,0.01-3.77,0.01-5.53,0.49    c-6.01,1.64-9.59,6.29-9.69,12.68c-0.13,8.45-0.04,16.89-0.04,25.34c0,6.42,0.02,12.84-0.01,19.26    C1317.84,368.7,1317.69,370.35,1317.59,372.28z"></path>
		<path class="st0" d="M902.5,372.44c-5.96,0-11.66,0-17.3,0c-1.07-3.81-1.33-99.58-0.29-106.15c5.74,0,11.55,0,17.34,0    C903.32,269.93,903.61,365.61,902.5,372.44z"></path>
		<path class="st0" d="M1026.45,289.4c0,27.76,0,55.02,0,82.83c-5.75,0.85-11.56,0.34-17.96,0.31c-0.1-1.89-0.27-3.5-0.27-5.12    c-0.02-21.12,0.06-42.24-0.08-63.35c-0.02-3.47,0.87-5.62,4.17-7.13c3.82-1.75,7.34-4.14,11.02-6.2    C1024.15,290.27,1025.07,289.98,1026.45,289.4z"></path>
		<path class="st0" d="M1008.52,287.55c0-7.67,0-14.31,0-21.4c6.09-0.61,11.87-0.53,18.29-0.03c0,3.2,0.2,6.05-0.1,8.84    c-0.12,1.11-1.08,2.49-2.06,3.09C1019.65,281.16,1014.52,284.05,1008.52,287.55z"></path>
	</g>
</g>
</svg>
